<svg width="1769" height="851" viewBox="0 0 1769 851" fill="none" xmlns="http://www.w3.org/2000/svg">
<rect width="1769" height="851" fill="#F1EFF0"/>
<mask id="mask0_56_262" style="mask-type:alpha" maskUnits="userSpaceOnUse" x="0" y="0" width="1769" height="851">
<rect width="1769" height="850.935" fill="#E3F1E9"/>
</mask>
<g mask="url(#mask0_56_262)">
<path d="M193.964 160.939C184.086 157.442 171.842 151.215 171.731 138.759C171.668 130.307 176.384 122.511 178.649 114.58C183.003 99.3234 177.377 82.6139 167.899 70.6954C158.172 58.4474 143.915 49.8003 128.707 47.1993C121.238 45.9098 113.517 46.1322 106.193 48.1369C98.8395 50.1425 91.8073 53.8869 85.3055 57.9054C70.8387 66.8803 57.9863 78.9018 47.6169 92.6065C37.4344 106.075 29.1978 121.72 26.1322 138.637C24.7288 146.448 24.4107 154.621 25.7688 162.479C27.4139 171.923 31.9308 180.628 37.8528 187.953C49.9754 202.93 68.0785 212.94 86.411 217.249C104.697 221.514 123.496 216.632 136.755 202.771C143.681 195.531 148.303 186.634 152.79 177.694C155.07 173.17 157.772 168.34 162.764 166.673C167.682 165.023 172.744 166.637 177.296 168.651C181.213 170.41 184.935 172.605 188.852 174.333C189.548 174.648 190.212 174.427 190.64 173.768C192.532 170.745 194.791 168.016 195.97 164.571C196.516 162.927 193.947 162.321 193.4 163.965C192.333 167.13 190.054 169.721 188.319 172.51C188.925 172.321 189.501 172.133 190.107 171.945C182.803 168.732 175.58 163.276 167.316 163.301C157.038 163.346 152.804 171.756 148.685 180.069C144.285 188.914 139.009 197.418 131.645 203.997C124.615 210.273 115.909 214.395 106.682 215.633C87.7822 218.186 67.5516 209.842 52.5527 198.396C44.8851 192.54 38.1004 185.306 33.496 176.664C29.1919 168.581 27.3704 159.71 27.5529 150.513C27.8743 133.624 34.496 117.372 43.3349 103.38C52.6013 88.7298 64.7708 75.8407 78.5753 65.6907C90.9355 56.616 105.225 48.6903 120.799 49.1158C136.313 49.5432 151.429 56.9959 162.246 68.3028C172.741 79.2981 180.077 95.8441 176.659 111.469C174.918 119.459 170.587 126.675 169.343 134.817C168.003 143.699 172.11 151.682 179.171 156.744C183.472 159.825 188.367 161.844 193.298 163.569C194.987 164.159 195.563 161.501 193.964 160.939Z" fill="#E1D4DB"/>
<path d="M184.862 161.882C179.263 159.273 173.424 157.147 168.063 154.024C165.451 152.514 162.979 150.723 160.854 148.521C158.48 146.021 156.894 142.943 155.294 139.881C150.299 130.178 147.643 119.371 142.032 109.995C131.549 92.5246 111.898 81.676 92.282 79.7873C81.3292 78.7346 70.2554 80.5707 60.3845 85.651C58.8568 86.4376 60.2547 88.7394 61.7679 87.9686C79.6157 78.8062 101.32 81.1635 118.417 90.945C127.512 96.1554 135.391 103.554 140.627 112.865C145.847 122.13 148.45 132.648 153.436 142.044C156.506 147.835 160.102 152.259 165.638 155.73C171.295 159.258 177.615 161.49 183.622 164.285C185.166 165.002 186.421 162.613 184.862 161.882Z" fill="#E1D4DB"/>
<path d="M154.98 154.039C124.636 149.203 92.2763 148.698 64.3795 134.054C56.2834 129.808 48.9116 124.357 42.5909 117.659C41.419 116.409 39.6143 118.386 40.7862 119.637C63.6311 143.776 97.3643 149.207 128.412 153.176C137.084 154.288 145.768 155.292 154.403 156.666C156.053 156.949 156.644 154.306 154.98 154.039Z" fill="#E1D4DB"/>
<path d="M139.863 137.272C121.002 113.14 90.3802 100.626 60.947 98.2454C59.2568 98.1013 59.3542 100.814 61.0291 100.943C89.4153 103.235 119.414 115.386 137.608 138.665C138.649 140.027 140.904 138.634 139.863 137.272Z" fill="#E1D4DB"/>
<path d="M113.992 131.338C101.765 129.591 90.3348 124.119 80.0701 117.244C78.6537 116.293 77.414 118.697 78.8304 119.648C89.2623 126.625 100.965 132.21 113.402 133.981C115.065 134.218 115.685 131.574 113.992 131.338Z" fill="#E1D4DB"/>
<path d="M145.186 165.085C132.089 169.074 118.612 172.339 104.875 171.961C90.1666 171.538 76.6137 166.428 63.6355 159.611C54.5842 154.859 45.3703 149.177 39.9749 140.04C39.0936 138.534 36.8395 139.959 37.7208 141.464C42.4076 149.381 49.8409 154.892 57.5713 159.38C64.7694 163.532 72.3284 167.289 80.1546 170.025C93.3954 174.685 107.301 175.702 121.128 173.638C129.548 172.364 137.793 170.207 145.937 167.715C147.563 167.201 146.812 164.602 145.186 165.085Z" fill="#E1D4DB"/>
<path d="M140.932 175.827C131.447 186.725 118.987 194.484 104.939 197.108C88.961 200.071 72.7483 196.291 59.7336 186.314C51.8815 180.281 45.1942 172.812 38.0766 165.911C36.847 164.724 35.0269 166.686 36.2719 167.888C49.508 180.727 62.0223 195.338 80.6589 199.346C94.9704 202.421 109.951 200.519 122.991 193.677C130.539 189.717 137.218 184.173 142.869 177.697C143.992 176.371 142.071 174.516 140.932 175.827Z" fill="#E1D4DB"/>
<path d="M99.3461 183.942C89.9998 184.203 80.597 182.117 73.1748 175.993C71.8585 174.9 70.0538 176.878 71.3701 177.97C79.3438 184.567 89.3376 186.956 99.4138 186.656C101.128 186.615 101.045 183.887 99.3461 183.942Z" fill="#E1D4DB"/>
<path d="M123.017 161.178C111.628 161.014 100.419 158.881 89.3714 156.189C87.718 155.783 87.1271 158.426 88.7805 158.833C100.038 161.578 111.487 163.735 123.084 163.892C124.801 163.912 124.718 161.214 123.017 161.178Z" fill="#E1D4DB"/>
<path d="M65.0692 147.395C59.2266 144.641 53.4599 141.93 49.129 136.886C48.0004 135.588 46.1957 137.565 47.3243 138.863C51.8099 144.086 57.8197 146.943 63.8593 149.798C65.373 150.516 66.6281 148.127 65.0692 147.395Z" fill="#E1D4DB"/>
<path d="M61.6316 116.314C56.1588 113.946 50.9673 111.017 45.4801 108.665C43.923 107.995 42.6833 110.398 44.2404 111.068C49.7132 113.436 54.9047 116.366 60.3919 118.717C61.9634 119.372 63.204 116.999 61.6316 116.314Z" fill="#E1D4DB"/>
<path d="M165.542 127.545C162.527 114.755 160.384 101.23 152.375 90.5219C143.946 79.2594 131.419 71.0927 118.053 67.7102C110.28 65.7401 102.21 65.2988 94.2491 65.9741C92.5528 66.1217 92.6349 68.8196 94.3312 68.6719C112.322 67.1462 129.257 72.0996 142.981 84.3086C149.206 89.8432 153.932 96.5779 156.844 104.507C159.659 112.195 161.116 120.356 163.014 128.319C163.424 130.024 165.936 129.236 165.542 127.545Z" fill="#E1D4DB"/>
<path d="M166.306 91.3851C162.877 85.099 159.46 78.7051 154.818 73.2413C150.082 67.6578 144.114 63.7106 137.23 61.5272C135.618 61.0123 135.027 63.6556 136.639 64.1705C143.313 66.2993 148.939 70.2732 153.447 75.7567C157.707 80.9108 160.844 86.9455 164.051 92.8093C164.888 94.3316 167.128 92.9232 166.306 91.3851Z" fill="#E1D4DB"/>
<path d="M206.037 261.032C208.552 252.986 208.325 243.066 205.532 235.132C203.605 229.671 199.196 222.558 192.514 224.081C186.662 225.424 184.227 232.654 184.319 238.129C184.431 244.278 186.151 250.789 189.251 256.074C190.778 258.678 192.84 261.234 195.581 262.571C198.458 263.981 201.493 263.697 204.331 262.331C205.875 261.59 204.477 259.288 202.947 260.013C192.772 264.888 187.801 247.651 187.09 240.447C186.635 235.813 187.287 229.777 191.76 227.252C196.85 224.369 201.198 230.978 202.695 235.072C205.56 242.926 205.969 252.426 203.468 260.456C202.951 262.1 205.521 262.706 206.037 261.032Z" fill="#E1D4DB"/>
<path d="M204.021 260.485C200.796 255.021 199.306 248.702 197.643 242.604C197.189 240.915 194.647 241.705 195.116 243.377C196.845 249.688 198.446 256.234 201.781 261.894C202.647 263.384 204.917 261.975 204.021 260.485Z" fill="#E1D4DB"/>
<path d="M186.113 267.685C182.054 264.688 177.908 261.816 173.591 259.196C168.666 256.196 163.166 252.909 157.424 252.008C155.4 251.69 153.148 251.687 151.411 252.957C149.499 254.354 148.977 256.826 149.032 259.111C149.111 262.699 150.121 266.471 152.267 269.316C154.723 272.581 158.237 274.782 161.963 276.149C169.944 279.063 181.073 278.56 186.034 270.465C186.944 268.992 184.593 267.735 183.697 269.191C179.832 275.517 170.982 275.899 164.679 274.188C161.203 273.243 157.809 271.513 155.31 268.833C153.059 266.421 152.008 263.264 151.714 259.974C151.622 258.903 151.587 257.769 151.899 256.731C152.088 256.08 152.473 255.5 152.838 255.227C153.989 254.345 155.723 254.442 157.298 254.743C162.415 255.695 167.246 258.544 171.683 261.192C174.297 262.763 176.854 264.428 179.368 266.141C180.343 266.815 181.318 267.489 182.295 268.194C182.707 268.502 183.118 268.78 183.53 269.089C183.896 269.353 184.171 269.559 184.309 269.662C185.682 270.66 187.502 268.698 186.113 267.685Z" fill="#E1D4DB"/>
<path d="M184.077 268.933C178.393 267.938 173.002 265.798 167.519 264.105C165.893 263.606 165.302 266.25 166.929 266.749C172.411 268.441 177.802 270.581 183.487 271.576C185.152 271.875 185.757 269.216 184.077 268.933Z" fill="#E1D4DB"/>
<path d="M175.61 240.225C174.531 233.202 173.147 225.468 168.677 219.784C165.946 216.313 161.885 212.81 157.504 211.971C155.628 211.619 153.666 211.867 152.216 213.234C150.548 214.808 150.115 217.247 150.003 219.46C149.732 225.238 153.292 230.461 157.356 234.087C161.803 238.054 167.613 241.193 173.579 241.626C175.268 241.74 175.171 239.027 173.497 238.929C169.146 238.626 164.827 236.42 161.318 233.865C157.519 231.09 153.969 227.217 152.883 222.419C152.195 219.403 152.507 213.992 156.658 214.577C160.283 215.072 163.686 218.06 166.051 220.76C170.581 225.966 171.948 233.624 172.971 240.296C173.232 242.006 175.871 241.935 175.61 240.225Z" fill="#E1D4DB"/>
<path d="M174.025 238.16C170.428 234.687 167.223 230.849 163.627 227.376C162.397 226.189 160.577 228.151 161.822 229.353C165.419 232.826 168.624 236.664 172.22 240.137C173.465 241.339 175.27 239.362 174.025 238.16Z" fill="#E1D4DB"/>
<path d="M1550.06 107.708C1574.46 118.771 1609.09 121.969 1630.35 102.394C1630.94 101.863 1630.84 100.93 1630.36 100.354C1625.21 94.2654 1617.14 91.0144 1609.93 88.3011C1601.32 85.0475 1592.86 82.9157 1583.63 82.8281C1575.13 82.744 1567.6 84.4616 1560.02 88.4523C1556.21 90.4418 1552.58 92.7717 1549.02 95.1674C1547.43 96.2436 1545.83 97.3397 1544.26 98.4473C1543.15 99.2235 1541.65 99.8722 1540.97 101.087C1540.56 101.804 1540.86 102.615 1541.47 103.035C1544.17 104.953 1547.22 106.1 1550.06 107.708C1551.63 108.589 1553.05 106.111 1551.46 105.219C1548.61 103.611 1545.57 102.464 1542.88 100.577C1543.05 101.237 1543.22 101.896 1543.39 102.525C1543.85 101.708 1546.09 100.652 1546.98 100.038C1548.46 99.0068 1549.96 97.9873 1551.45 96.9876C1554.68 94.8384 1557.96 92.755 1561.39 90.969C1568.71 87.1368 1575.93 85.6059 1584.13 85.7228C1592.69 85.8414 1600.5 87.8502 1608.49 90.8184C1615.45 93.3822 1623.38 96.5013 1628.37 102.384C1628.37 101.694 1628.38 101.035 1628.38 100.345C1618.13 109.765 1604.24 113.251 1590.78 113.437C1577.37 113.626 1563.73 110.781 1551.44 105.208C1549.83 104.49 1548.41 106.967 1550.06 107.708Z" fill="#DBDBDB"/>
<path d="M1545.72 102.875C1560.1 100.45 1574.7 99.7475 1589.26 100.001C1595.53 100.111 1601.76 99.9103 1608.03 99.8352C1614.57 99.7672 1621.34 99.9084 1627.55 102.323C1629.23 102.973 1629.94 100.184 1628.27 99.5341C1622.28 97.226 1615.73 96.9233 1609.42 96.944C1602.69 96.9598 1596 97.2354 1589.28 97.1171C1574.46 96.8683 1559.66 97.6407 1545.03 100.102C1543.23 100.413 1543.97 103.189 1545.72 102.875Z" fill="#DBDBDB"/>
<path d="M1619.86 102.505C1604.85 105.778 1589.58 109.407 1574.13 107.851C1572.35 107.668 1572.36 110.544 1574.15 110.726C1589.82 112.306 1605.34 108.622 1620.57 105.29C1622.33 104.905 1621.61 102.14 1619.86 102.505Z" fill="#DBDBDB"/>
<path d="M1597.64 91.2791C1588.83 90.2693 1580.19 91.4538 1571.49 92.8207C1569.71 93.0915 1570.45 95.8676 1572.21 95.5852C1580.7 94.2573 1589.09 93.16 1597.67 94.1344C1599.45 94.3684 1599.41 91.4816 1597.64 91.2791Z" fill="#DBDBDB"/>
<path d="M1570.04 103.641C1566.27 103.212 1562.56 102.333 1558.76 102.251C1557.99 102.225 1557.36 102.938 1557.37 103.711C1557.36 104.504 1558.02 105.132 1558.79 105.138C1562.59 105.219 1566.31 106.099 1570.07 106.528C1570.83 106.606 1571.47 105.79 1571.46 105.069C1571.44 104.233 1570.78 103.739 1570.04 103.641Z" fill="#DBDBDB"/>
<path d="M1525.48 81.5614C1552.19 80.1167 1584.31 66.8496 1594.76 39.4951C1595.06 38.7208 1594.38 37.9987 1593.76 37.7332C1586.37 34.6482 1577.54 35.5637 1569.85 36.5189C1561.35 37.5787 1553.44 39.3857 1545.65 43.1786C1537.84 46.9798 1531.61 51.8585 1526.4 58.9839C1523.72 62.6504 1521.39 66.5753 1519.15 70.5577C1518.16 72.3299 1517.17 74.1335 1516.19 75.9171C1515.51 77.1831 1514.45 78.4672 1514.38 79.9358C1514.34 80.5004 1514.83 81.2415 1515.43 81.33C1518.79 81.8369 1522.11 81.4452 1525.48 81.5614C1527.28 81.6215 1527.26 78.7462 1525.46 78.6861C1522.35 78.5655 1519.22 78.9896 1516.13 78.5609C1516.48 79.0362 1516.83 79.4799 1517.18 79.9552C1517.24 79.0313 1518.9 76.8573 1519.44 75.8816C1520.36 74.1975 1521.28 72.5134 1522.24 70.8523C1524.27 67.2796 1526.4 63.7644 1528.83 60.4533C1533.81 53.6433 1539.98 49.101 1547.44 45.5148C1554.89 41.9485 1562.52 40.3198 1570.64 39.3494C1577.89 38.4805 1586.13 37.6619 1593.05 40.5536C1592.72 39.9558 1592.39 39.3895 1592.05 38.7917C1587.02 51.945 1576.1 61.4673 1564.16 67.867C1552.27 74.2383 1538.85 77.981 1525.48 78.6976C1523.67 78.7915 1523.69 81.6668 1525.48 81.5614Z" fill="#DBDBDB"/>
<path d="M1519.18 79.4402C1531.31 70.3432 1544.38 62.7567 1557.89 56.0738C1563.46 53.3284 1568.84 50.2312 1574.32 47.3256C1579.83 44.4116 1585.67 41.5591 1591.89 40.8734C1593.66 40.6738 1593.66 37.8101 1591.88 37.9982C1579.66 39.3422 1569.19 47.3577 1558.36 52.6618C1544.2 59.5727 1530.47 67.4269 1517.79 76.9434C1516.35 78.0289 1517.74 80.5257 1519.18 79.4402Z" fill="#DBDBDB"/>
<path d="M1585.35 44.6094C1573.5 54.4038 1561.55 64.6968 1547.23 70.4232C1545.57 71.0826 1546.28 73.867 1547.95 73.1877C1562.76 67.2755 1575.06 56.7873 1587.33 46.6584C1588.73 45.4986 1586.74 43.4695 1585.35 44.6094Z" fill="#DBDBDB"/>
<path d="M1560.93 44.7334C1552.6 47.9161 1545.41 52.9098 1538.22 58.1716C1536.76 59.2456 1538.15 61.7424 1539.61 60.6685C1546.58 55.5681 1553.57 50.6134 1561.65 47.4979C1563.33 46.85 1562.61 44.0855 1560.93 44.7334Z" fill="#DBDBDB"/>
<path d="M1541.71 68.5567C1538.05 69.9679 1534.25 70.9477 1530.71 72.6961C1530.06 73.0267 1529.81 74.021 1530.18 74.6617C1530.61 75.3683 1531.39 75.5404 1532.09 75.2129C1532.96 74.7721 1533.63 74.4845 1534.46 74.1548C1535.36 73.8083 1536.26 73.4932 1537.16 73.1781C1538.91 72.5763 1540.67 72.0257 1542.41 71.361C1543.1 71.1048 1543.65 70.3973 1543.4 69.6088C1543.23 68.8977 1542.46 68.2836 1541.71 68.5567Z" fill="#DBDBDB"/>
<path d="M1810.32 -45.1041C1826.11 -20.644 1838.36 6.43581 1850.54 32.9519C1855.84 44.4794 1860.75 56.2716 1864.6 68.4172C1868.16 79.726 1871.19 91.8195 1870.69 103.784C1870.45 109.484 1869.67 118.048 1863.63 120.52C1859.11 122.366 1853.55 120.494 1849.13 119.177C1841.32 116.823 1828.47 110.94 1823.07 120.619C1820.14 125.881 1820.76 132.329 1821.88 138.055C1823.42 145.788 1826.01 153.257 1828 160.832C1829.92 168.187 1831.93 176.545 1829.94 184.106C1827.9 191.773 1820.58 196.96 1812.93 197.019C1804.13 197.071 1796.13 190.876 1789.34 185.799C1782.94 180.986 1776.45 175.283 1768.78 172.84C1760.93 170.363 1754.06 173.858 1748.33 179.325C1740.76 186.521 1735.22 195.715 1729.01 204.107C1722.78 212.562 1716.17 219.589 1706.74 224.232C1699.49 227.806 1687.36 232.169 1680.99 224.66C1674.1 216.517 1677.48 202.462 1680.06 193.236C1683.37 181.41 1688.17 170.049 1692.61 158.663C1694.38 154.124 1696.1 149.576 1697.6 144.959C1698 143.69 1696.7 142.554 1695.58 142.599C1687.63 142.941 1679.5 141.733 1671.79 139.766C1664.26 137.835 1654.92 134.821 1649.99 128.157C1644.2 120.33 1650.51 111.021 1656.74 105.861C1664.86 99.0967 1674.85 94.9822 1684.06 90.0668C1693.41 85.0895 1703.95 78.9131 1707.87 68.1966C1708.24 67.1743 1707.98 66.0909 1706.96 65.5368C1696.47 59.7492 1684.87 55.4956 1675.49 47.804C1671.93 44.8999 1667.77 40.7717 1668.1 35.688C1668.58 28.481 1676.85 23.214 1682.27 20.1785C1691.58 14.9634 1701.95 12.4609 1712.1 9.68544C1719.25 7.7144 1730.37 6.71767 1732.63 -2.32343C1733.14 -4.39425 1732.36 -5.4243 1731.16 -6.92974C1729.09 -9.59732 1729.95 -13.1309 1730.01 -16.4171C1730.01 -18.1791 1729.64 -20.9804 1730.61 -22.5671C1731.67 -24.3653 1734.81 -25.0288 1736.6 -25.6471C1747.78 -29.6305 1759.4 -32.0372 1770.84 -35.2367C1777.17 -37.0308 1783.71 -38.1644 1790.11 -39.8088C1796.92 -41.5505 1803.7 -43.4595 1810.48 -45.3685C1812.86 -46.0491 1811.65 -49.801 1809.25 -49.1469C1797.08 -45.7089 1784.86 -42.5087 1772.53 -39.7225C1766.66 -38.4046 1760.88 -36.5669 1755.05 -35.1256C1749.23 -33.6844 1743.4 -32.1991 1737.72 -30.2029C1733.57 -28.7632 1727.68 -27.5421 1726.49 -22.4488C1725.91 -19.8669 1726.18 -16.9951 1726.11 -14.352C1726.07 -11.1099 1725.48 -7.84088 1727.51 -5.1116C1727.88 -4.60095 1728.89 -3.95874 1728.91 -3.35967C1729.03 -0.95464 1724.78 2.00053 1723.08 2.63638C1718.2 4.49967 1712.74 5.46488 1707.69 6.83496C1696.88 9.75196 1685.95 12.8717 1676.44 19.1442C1671.31 22.5142 1665.55 27.5851 1664.38 34.0791C1663.5 39.0047 1665.77 43.5222 1668.93 47.0787C1678.43 57.7479 1693.11 62.5185 1705.21 69.1416C1704.9 68.2521 1704.62 67.3714 1704.3 66.4818C1700.28 77.542 1688.54 83.3143 1678.92 88.283C1669.1 93.3928 1658.08 97.9839 1650.4 106.396C1645.01 112.321 1641.34 121.072 1645.63 128.707C1649.8 136.156 1658.72 139.884 1666.32 142.309C1675.66 145.322 1685.89 147.004 1695.71 146.564C1695.04 145.763 1694.38 144.988 1693.69 144.205C1690.01 155.634 1685.05 166.572 1680.94 177.844C1677.18 188.225 1673.18 199.382 1673.15 210.598C1673.14 219.778 1676.25 229.757 1685.85 232.136C1694.75 234.348 1704.55 230.172 1712.17 225.733C1721.35 220.422 1727.72 212.408 1733.9 203.803C1740.02 195.279 1745.91 185.195 1754.54 179.108C1762.48 173.498 1770.16 176.971 1777.43 181.986C1784.99 187.221 1791.93 193.611 1800.2 197.709C1807.82 201.491 1816.1 202.294 1823.66 197.935C1830.07 194.255 1833.65 187.821 1834.24 180.385C1835.54 163.865 1826.35 148.931 1824.76 132.828C1824.29 128.221 1824.68 121.155 1829.94 119.599C1834.59 118.238 1840.27 120.638 1844.66 122.018C1854.23 125.031 1867.02 128.772 1872.01 116.628C1875.67 107.735 1874.68 96.8381 1873.09 87.6066C1870.93 74.8428 1866.83 62.486 1862.08 50.5439C1857.47 38.8836 1852.14 27.5323 1846.61 16.278C1839.63 2.00322 1833.09 -12.5275 1825.57 -26.5022C1821.75 -33.582 1817.69 -40.5031 1813.32 -47.2388C1812.14 -49.4491 1808.93 -47.2437 1810.32 -45.1041Z" fill="#DBDBDB"/>
<path d="M1808.29 -49.2516C1800.72 -14.3923 1784.38 17.823 1769.46 49.7815C1761.65 66.5011 1754.07 83.3615 1746 99.958C1737.47 117.471 1728.79 134.905 1720.55 152.568C1716.04 162.201 1711.67 171.931 1707.55 181.758C1705.49 186.65 1703.49 191.576 1701.58 196.52C1699.59 201.632 1698.27 206.902 1696.32 212.022C1695.44 214.384 1698.89 216.143 1699.79 213.763C1701.36 209.551 1702.41 205.162 1703.99 200.976C1705.71 196.473 1707.48 192.004 1709.33 187.527C1713.02 178.573 1716.91 169.707 1720.94 160.937C1729.16 143.019 1737.91 125.347 1746.54 107.649C1754.94 90.4087 1762.93 72.9929 1771.01 55.5947C1778.56 39.3246 1786.35 23.1512 1793.44 6.6261C1801.03 -11.1681 1807.92 -29.4287 1812.04 -48.462C1812.63 -50.9734 1808.84 -51.7277 1808.29 -49.2516Z" fill="#DBDBDB"/>
<path d="M1737.07 178.393C1736.17 171.063 1735.46 163.681 1734.92 156.29C1734.31 147.921 1733.75 139.402 1734.41 131.041C1734.56 129.103 1732.47 127.827 1731.06 129.37C1721.7 139.545 1710.87 148.136 1701.69 158.461C1700.01 160.339 1702.94 162.953 1704.61 161.075C1713.8 150.75 1724.63 142.159 1733.98 131.984C1732.87 131.412 1731.73 130.858 1730.63 130.313C1729.94 138.851 1730.42 147.467 1731.04 155.976C1731.59 163.553 1732.31 171.12 1733.23 178.66C1733.53 181.171 1737.38 180.93 1737.07 178.393Z" fill="#DBDBDB"/>
<path d="M1784.12 162.678C1767.45 138.518 1762.46 109.811 1758.06 81.1557C1757.9 80.0458 1756.76 78.8045 1755.53 79.3783C1736.94 88.3724 1717.98 96.4418 1699.33 105.286C1697.08 106.337 1698.28 110.133 1700.56 109.065C1719.21 100.22 1738.17 92.1508 1756.76 83.1567C1755.92 82.5496 1755.07 81.9865 1754.23 81.3793C1758.75 110.677 1763.87 140.142 1780.93 164.866C1782.33 166.961 1785.56 164.782 1784.12 162.678Z" fill="#DBDBDB"/>
<path d="M1810.02 105.398C1794.82 83.6685 1788.06 56.8657 1781.59 31.3137C1781.28 30.0365 1779.67 29.615 1778.7 30.2855C1761.78 41.6832 1741.41 45.9832 1724.5 57.3368C1722.43 58.7219 1724.55 62.0413 1726.65 60.6387C1743.54 49.2586 1763.93 44.985 1780.84 33.5873C1779.88 33.2534 1778.91 32.8931 1777.95 32.5592C1784.53 58.4547 1791.43 85.5834 1806.81 107.603C1808.26 109.664 1811.47 107.458 1810.02 105.398Z" fill="#DBDBDB"/>
<path d="M1828.18 59.1726C1819.95 35.0229 1808.68 12.1975 1799.54 -11.5902C1799.18 -12.5325 1798.09 -13.3068 1797.08 -12.8478C1779.56 -4.96471 1759.61 -5.88949 1742.4 2.99764C1740.17 4.14494 1742.35 7.42913 1744.54 6.29947C1761.39 -2.41113 1781.1 -1.32757 1798.3 -9.09581C1797.47 -9.51794 1796.68 -9.93129 1795.85 -10.3534C1805 13.3902 1816.26 36.2597 1824.49 60.4094C1825.32 62.8226 1828.99 61.5594 1828.18 59.1726Z" fill="#DBDBDB"/>
<path d="M815.691 116.772C805.341 108.719 792.923 101.363 779.746 100.368C767.249 99.4161 756.654 105.936 750.622 117.157C745.129 127.369 743.084 139.548 742.285 151.103C741.393 164.02 742.084 177.428 745.349 190.006C747.677 198.906 751.381 208.442 759.788 212.872C767.126 216.754 775.741 215.584 783.276 213.109C792.463 210.103 800.961 205.004 808.886 199.433C816.336 194.232 823.988 188.481 830.177 181.729C838.143 173.044 842.673 161.574 839.715 149.59C836.306 135.784 825.932 126.321 816.485 116.686C815.214 115.393 813.041 117.204 814.321 118.518C822.353 126.698 831.139 134.531 835.505 145.589C839.28 155.118 838.266 165.224 832.779 173.759C827.762 181.52 820.156 187.376 812.964 192.89C805.948 198.246 798.538 203.201 790.601 207.002C783.419 210.456 775.165 213.414 767.101 212.25C758.769 211.032 753.528 204.715 750.484 196.981C746.254 186.292 744.908 174.303 744.741 162.887C744.569 151.068 745.683 138.886 749.293 127.662C753.302 115.164 761.671 104.086 775.261 103.217C789.322 102.308 803.192 110.696 814.047 119.126C815.515 120.252 817.138 117.908 815.691 116.772Z" fill="#D3CBCF"/>
<path d="M816.505 116.676C814.016 114.269 811.746 111.355 811.203 107.799C810.757 104.859 811.612 101.929 812.933 99.3423C816.031 93.3009 821.172 88.5272 825.495 83.4451C827.749 80.8103 829.929 78.0579 831.386 74.8257C830.504 74.597 829.601 74.3777 828.698 74.1584C825.87 88.4733 827.888 107.13 814.192 115.913C812.683 116.886 814.458 119.114 815.977 118.162C830.433 108.878 828.491 89.5514 831.479 74.4783C831.816 72.7761 829.407 72.412 828.783 73.7898C825.97 79.9795 820.429 84.734 816.177 89.8091C812.072 94.7153 807.641 100.786 808.365 107.684C808.818 111.991 811.38 115.633 814.351 118.529C815.654 119.782 817.826 117.972 816.505 116.676Z" fill="#D3CBCF"/>
<path d="M817.947 117.688C825.749 110.651 836.071 105.246 846.673 107.805C846.343 107.043 846.012 106.282 845.681 105.521C842.702 110.316 837.65 113.551 832.595 115.596C827.54 117.641 821.497 118.821 816.24 116.798C814.543 116.158 813.558 118.844 815.255 119.484C821.094 121.721 827.676 120.598 833.347 118.396C838.969 116.192 844.668 112.532 847.949 107.193C848.548 106.207 847.997 105.166 846.956 104.909C835.669 102.183 824.453 107.949 816.153 115.418C814.813 116.668 816.598 118.917 817.947 117.688Z" fill="#D3CBCF"/>
<path d="M815.376 116.612C799.847 109.697 793.95 90.1089 801.636 74.9817C800.84 75.1195 800.043 75.2572 799.258 75.3645C801.846 78.3353 804.725 81.02 807.292 84.0003C809.736 86.809 812.293 90.0475 812.593 93.9437C812.741 95.8037 815.481 95.3556 815.363 93.5073C814.734 85.196 806.387 79.2158 801.413 73.5115C800.645 72.6465 799.523 72.9342 799.035 73.8942C790.633 90.4672 797.594 111.773 814.402 119.267C816.054 120.03 817.04 117.344 815.376 116.612Z" fill="#D3CBCF"/>
<path d="M774.505 110.033C772.948 111.966 772.461 114.448 771.908 116.833C771.835 117.171 772.016 117.646 772.227 117.905C772.437 118.163 772.808 118.398 773.158 118.415C773.537 118.444 773.921 118.369 774.192 118.092C774.492 117.827 774.604 117.522 774.679 117.132C774.584 117.531 774.666 117.214 774.679 117.132C774.693 117.05 774.726 116.958 774.739 116.876C774.775 116.733 774.801 116.569 774.837 116.425C774.908 116.139 774.97 115.831 775.062 115.536C775.202 115.014 775.343 114.493 775.513 113.984C775.582 113.749 775.68 113.526 775.779 113.303C775.833 113.202 775.878 113.08 775.932 112.979C775.954 112.918 775.977 112.857 776.008 112.817C776.128 112.585 775.835 113.151 775.954 112.918C776.202 112.475 776.468 112.073 776.763 111.684C777.226 111.116 777.036 110.061 776.421 109.659C775.777 109.245 774.99 109.404 774.505 110.033Z" fill="#D3CBCF"/>
<path d="M798.108 124.044C797.795 125.405 797.254 126.694 796.645 127.938C796.602 128.008 796.58 128.069 796.537 128.14C796.634 127.969 796.591 128.039 796.526 128.17C796.45 128.332 796.364 128.473 796.288 128.635C796.126 128.938 795.943 129.25 795.772 129.532C795.408 130.156 795.023 130.79 794.638 131.423C794.253 132.057 794.296 133.001 794.98 133.448C795.574 133.859 796.507 133.811 796.935 133.107C798.455 130.582 800.047 127.998 800.731 125.07C800.827 124.671 800.859 124.352 800.694 123.971C800.556 123.654 800.239 123.318 799.922 123.209C799.27 123.002 798.288 123.276 798.108 124.044Z" fill="#D3CBCF"/>
<path d="M823.615 146.261C823.594 146.55 823.573 146.838 823.551 147.127C823.536 147.261 823.521 147.395 823.485 147.538C823.472 147.62 823.45 147.681 823.437 147.764C823.434 147.815 823.365 148.05 823.425 147.794C823.485 147.538 823.416 147.773 823.414 147.825C823.401 147.907 823.379 147.968 823.365 148.05C823.33 148.193 823.274 148.346 823.238 148.489C823.158 148.754 823.048 149.008 822.938 149.261C822.873 149.393 822.828 149.515 822.763 149.646C822.655 149.848 822.763 149.646 822.796 149.555C822.754 149.625 822.731 149.686 822.688 149.757C822.549 149.998 822.389 150.249 822.229 150.5C822.069 150.752 821.88 150.991 821.71 151.221C821.595 151.35 821.501 151.47 821.385 151.599C821.302 151.688 821.116 151.824 821.406 151.589C821.333 151.648 821.291 151.718 821.218 151.777C820.947 152.054 820.756 152.345 820.73 152.737C820.687 153.087 820.809 153.538 821.049 153.808C821.52 154.328 822.461 154.58 823.023 154.017C824.046 152.937 824.903 151.757 825.527 150.379C826.064 149.194 826.355 147.893 826.405 146.602C826.444 145.848 825.954 145.058 825.166 144.99C824.437 144.944 823.656 145.455 823.615 146.261Z" fill="#D3CBCF"/>
<path d="M778.825 133.086C777.838 135.316 776.837 137.628 776.729 140.138C776.69 140.892 777.18 141.682 777.968 141.75C778.677 141.805 779.478 141.285 779.519 140.479C779.532 139.89 779.624 139.315 779.737 138.73C779.739 138.678 779.762 138.617 779.784 138.556C779.729 138.937 779.748 138.699 779.762 138.617C779.797 138.474 779.833 138.331 779.868 138.188C779.94 137.901 780.04 137.627 780.121 137.361C780.494 136.251 780.966 135.197 781.437 134.143C781.754 133.465 781.311 132.501 780.628 132.282C779.869 131.997 779.164 132.347 778.825 133.086Z" fill="#D3CBCF"/>
<path d="M799.881 148.496C799.388 150.625 798.429 152.639 797.531 154.625C797.223 155.325 797.657 156.267 798.339 156.486C799.09 156.75 799.815 156.391 800.133 155.661C801.011 153.685 801.97 151.671 802.484 149.532C802.58 149.133 802.612 148.813 802.447 148.433C802.309 148.116 801.991 147.78 801.675 147.671C801.329 147.551 800.93 147.532 800.613 147.703C800.307 147.844 799.966 148.127 799.881 148.496Z" fill="#D3CBCF"/>
<path d="M759.892 142.653C759.015 146.431 757.721 150.095 756.844 153.873C756.675 154.61 756.881 155.479 757.652 155.733C758.294 155.971 759.275 155.697 759.446 154.909C760.324 151.131 761.618 147.467 762.495 143.689C762.664 142.952 762.457 142.083 761.686 141.828C761.054 141.612 760.072 141.885 759.892 142.653Z" fill="#D3CBCF"/>
<path d="M780.864 158.431C780.427 160.408 780.388 162.456 779.95 164.433C779.877 164.771 780.059 165.245 780.269 165.504C780.479 165.762 780.851 165.998 781.2 166.014C781.58 166.043 781.963 165.968 782.234 165.691C782.535 165.426 782.647 165.121 782.722 164.731C783.159 162.755 783.199 160.707 783.636 158.73C783.709 158.392 783.527 157.917 783.317 157.659C783.107 157.4 782.736 157.165 782.386 157.148C782.006 157.12 781.623 157.195 781.352 157.471C781.061 157.758 780.939 158.042 780.864 158.431Z" fill="#D3CBCF"/>
<path d="M809.679 170.757C808.17 173.251 806.867 175.88 805.153 178.241C804.709 178.851 804.871 179.842 805.495 180.265C806.149 180.7 806.984 180.596 807.451 179.924C809.155 177.543 810.468 174.935 811.976 172.44C812.361 171.807 812.318 170.862 811.634 170.416C811.028 170.035 810.095 170.083 809.679 170.757Z" fill="#D3CBCF"/>
<path d="M767.064 169.901C766.473 172.481 765.448 174.906 764.837 177.495C764.741 177.894 764.709 178.214 764.874 178.594C765.012 178.911 765.329 179.248 765.645 179.356C766.287 179.594 767.269 179.32 767.439 178.531C768.03 175.951 769.055 173.526 769.667 170.937C769.762 170.537 769.795 170.218 769.629 169.838C769.491 169.52 769.174 169.184 768.858 169.076C768.226 168.859 767.244 169.133 767.064 169.901Z" fill="#D3CBCF"/>
<path d="M790.45 179.191C789.354 181.623 788.309 184.057 787.341 186.557C787.083 187.259 787.437 188.187 788.149 188.417C788.87 188.669 789.654 188.334 789.943 187.593C790.891 185.102 791.957 182.658 793.053 180.227C793.36 179.527 792.926 178.585 792.244 178.366C791.493 178.102 790.769 178.461 790.45 179.191Z" fill="#D3CBCF"/>
<path d="M768.489 193.777C767.524 195.946 766.57 198.085 765.595 200.232C765.288 200.932 765.722 201.874 766.404 202.093C767.155 202.357 767.879 201.998 768.198 201.268C769.172 199.121 770.117 196.961 771.092 194.813C771.399 194.114 770.965 193.172 770.283 192.953C769.553 192.68 768.828 193.038 768.489 193.777Z" fill="#D3CBCF"/>
<path d="M755.096 185.474C755.083 186.064 754.99 186.639 754.878 187.224C754.876 187.275 754.853 187.336 754.831 187.397C754.886 187.017 754.866 187.254 754.853 187.336C754.818 187.48 754.782 187.623 754.746 187.766C754.675 188.052 754.574 188.327 754.494 188.592C754.121 189.703 753.649 190.757 753.178 191.811C752.87 192.51 753.304 193.452 753.986 193.671C754.737 193.935 755.462 193.576 755.78 192.846C756.768 190.617 757.769 188.304 757.876 185.794C757.916 185.04 757.426 184.251 756.638 184.182C755.918 184.158 755.117 184.678 755.096 185.474Z" fill="#D3CBCF"/>
<path d="M788.981 195.62C788.801 196.388 788.541 197.142 788.163 197.848C788.217 197.747 788.262 197.625 788.336 197.515C787.882 198.383 787.301 199.183 786.671 199.93C786.461 200.178 786.373 200.65 786.42 200.984C786.476 201.338 786.701 201.743 786.983 201.942C787.286 202.133 787.641 202.274 788.004 202.209C788.387 202.134 788.665 201.93 788.927 201.632C790.126 200.168 791.13 198.539 791.563 196.666C791.659 196.267 791.691 195.947 791.526 195.567C791.388 195.249 791.07 194.913 790.754 194.805C790.409 194.685 790.009 194.666 789.692 194.837C789.406 194.968 789.065 195.252 788.981 195.62Z" fill="#D3CBCF"/>
<path d="M828.582 162.979C827.487 165.411 826.116 167.715 825.473 170.345C825.377 170.744 825.345 171.063 825.51 171.444C825.648 171.761 825.966 172.097 826.282 172.205C826.923 172.443 827.905 172.169 828.076 171.381C828.689 168.739 830.089 166.446 831.185 164.015C831.502 163.336 831.059 162.373 830.376 162.154C829.616 161.869 828.921 162.239 828.582 162.979Z" fill="#D3CBCF"/>
<path d="M757.562 122.997C756.536 124.687 755.721 126.584 755.254 128.549C755.159 128.948 755.126 129.267 755.292 129.648C755.429 129.965 755.747 130.301 756.063 130.41C756.409 130.53 756.808 130.549 757.125 130.378C757.422 130.216 757.763 129.932 757.857 129.585C758.217 128.049 758.804 126.587 759.528 125.214C759.474 125.315 759.43 125.437 759.355 125.547C759.497 125.254 759.648 124.982 759.819 124.7C760.021 124.378 760.115 124.031 760.07 123.646C760.014 123.291 759.789 122.887 759.506 122.687C758.912 122.276 757.979 122.324 757.562 122.997Z" fill="#D3CBCF"/>
<path d="M815.929 115.521C817.462 111.112 818.917 106.638 820.835 102.382C821.142 101.683 820.697 100.771 820.026 100.521C819.287 100.227 818.539 100.647 818.232 101.346C816.324 105.623 814.88 110.067 813.336 114.506C813.087 115.229 813.435 116.084 814.145 116.367C814.845 116.628 815.69 116.265 815.929 115.521Z" fill="#D3CBCF"/>
<path d="M1602.06 841.013C1621.82 821.37 1642.01 800.141 1653 773.799C1658.34 760.978 1660.05 747.584 1660.67 733.761C1661.31 719.422 1660.38 703.819 1665.64 690.286C1668.59 682.714 1673.13 675.927 1678.47 669.913C1681.18 666.826 1684.1 663.96 1687.17 661.241C1688.75 659.839 1690.39 658.498 1692.01 657.181C1693.27 656.173 1694.73 654.34 1696.21 653.81C1698.24 653.071 1697.18 649.828 1695.15 650.568C1692.76 651.431 1691.63 653.09 1689.72 654.69C1687.03 656.966 1684.31 659.193 1681.76 661.628C1676.66 666.475 1672.05 671.873 1668.24 677.837C1664.61 683.529 1661.82 689.798 1660.24 696.447C1658.61 703.342 1658.31 710.616 1657.97 717.681C1657.27 732.511 1657.63 747.697 1653.62 762.089C1649.53 776.715 1641.5 790.091 1632.54 802.068C1622.65 815.262 1611.21 827.168 1599.58 838.73C1598.03 840.268 1600.53 842.563 1602.06 841.013Z" fill="#DCD3D7"/>
<path d="M1643.6 781.685C1628.83 788.053 1611.76 773.942 1603.04 762.943C1598.53 757.259 1594.09 750.138 1593.73 742.619C1593.58 739.781 1594.21 736.942 1595.96 734.679C1598 732.072 1602.14 729.623 1605.42 729.828C1609.33 730.082 1609.89 735.463 1610.34 738.546C1610.95 742.661 1611.19 746.986 1612.61 750.904C1615.54 758.973 1625.64 763.41 1633.36 759.936C1640.97 756.5 1643.61 746.533 1640.56 739.017C1637.25 730.85 1629.94 724.653 1623.61 718.984C1617.5 713.523 1608.75 707.635 1606.2 699.332C1604.34 693.227 1605.56 686.702 1608.38 681.121C1608.88 680.15 1610.68 675.761 1612.15 675.747C1612.23 675.76 1613.22 677.675 1613.46 678.228C1616.38 685.4 1616.75 694.332 1621.88 700.396C1626.69 706.079 1635.8 707.863 1639.84 700.573C1643.95 693.135 1641.97 684.819 1639.37 677.352C1637.78 672.795 1635.72 667.232 1638.02 662.548C1639.36 659.831 1644.92 654.579 1648.38 656.627C1651.99 658.749 1650.46 665.668 1653.26 668.662C1658.27 674.051 1666.16 663.119 1667.06 658.916C1668.12 653.755 1666.57 648.326 1665.1 643.401C1663.38 637.677 1661.53 631.88 1660.94 625.872C1660.29 619.373 1661.82 613.376 1665.9 608.285C1669.3 604.042 1674.15 601.309 1679.14 599.448C1683.83 597.674 1689.69 596.23 1694.53 598.277C1698.91 600.152 1700.34 604.107 1698.46 608.36C1695.88 614.248 1688.15 621.026 1690.64 628.162C1691.79 631.453 1695.28 634.128 1698.64 634.407C1702.35 634.71 1705.93 632.74 1709.06 630.968C1713.19 628.604 1717.13 625.713 1721.59 624.037C1726.4 622.238 1731.03 623.474 1735.45 625.889C1744.38 630.77 1751.07 641.71 1744.91 651.533C1739.03 660.89 1727.54 659.698 1718.29 662.202C1708.87 664.744 1693.22 678.141 1706.29 686.617C1711.27 689.843 1717.2 691.495 1722.71 693.492C1727.93 695.366 1734.23 697.3 1738.21 701.485C1741.67 705.131 1740.79 711.459 1736.38 714.02C1731.56 716.826 1724.55 714.377 1719.7 712.871C1708.11 709.333 1691.94 700.836 1680.3 708.343C1672.74 713.217 1670.49 723.294 1672.94 731.757C1675.72 741.374 1685.06 748.613 1694.79 744.45C1699.3 742.528 1703.15 739.096 1707.9 737.788C1712.35 736.567 1718.31 737.777 1721.8 740.98C1727.29 745.938 1722.57 753.708 1718.36 757.657C1712.38 763.278 1704.52 765.449 1696.7 763.344C1690.79 761.729 1680.79 757.071 1675.94 763.269C1670.49 770.204 1677.08 776.525 1681.38 781.459C1684.26 784.774 1684.95 788.287 1681.62 791.706C1678.7 794.719 1674.18 794.737 1670.35 794.065C1662.9 792.734 1655.18 788.872 1649.25 784.025C1647.58 782.651 1645.33 785.209 1647.02 786.596C1653.17 791.651 1660.97 795.611 1668.71 797.274C1675.96 798.838 1685.63 797.132 1687.22 788.161C1688.72 779.817 1677.92 777.2 1677.32 769.804C1676.39 758.747 1692.95 766.088 1697.85 767.189C1705.35 768.913 1713.24 766.324 1719.15 761.465C1724.01 757.479 1728.91 750.814 1727.32 744.021C1725.51 736.283 1715.37 732.927 1708.55 734.163C1703.64 735.053 1699.68 738.178 1695.32 740.456C1689.64 743.411 1683.64 742.607 1679.42 737.377C1673.12 729.521 1673.65 715.28 1683.36 710.527C1689.66 707.461 1697.45 709.516 1703.81 711.365C1710.96 713.458 1717.92 716.411 1725.23 717.914C1730.42 718.978 1736.66 719.315 1740.52 714.912C1744.03 710.94 1744.85 704.796 1741.62 700.413C1738.14 695.686 1731.99 693.395 1726.8 691.411C1720.89 689.181 1714.62 687.504 1709.07 684.39C1704.55 681.827 1702.9 678.56 1706.46 674.121C1709.26 670.616 1712.95 667.627 1717.13 666.148C1721.86 664.459 1726.92 664.196 1731.82 663.207C1741.25 661.317 1750 655.029 1750.62 644.364C1751.2 634.78 1744.11 626.519 1736.19 622.46C1732.16 620.401 1727.56 618.993 1723.06 620.005C1718.6 621.005 1714.59 623.614 1710.74 625.965C1707.34 628.033 1702.39 631.909 1698.15 630.906C1693.69 629.879 1692.76 625.567 1694.44 621.855C1697.2 615.721 1705.09 608.746 1702.09 601.291C1698.1 591.331 1684.86 593.446 1677.22 596.502C1667.4 600.432 1658.83 608.071 1657.56 619.413C1656.92 625.103 1658.11 630.802 1659.54 636.293C1661.1 642.213 1663.66 648.218 1663.96 654.386C1664.12 657.445 1663.5 660.468 1661.46 662.83C1660.57 663.85 1658 666.581 1656.42 666.509C1654.72 666.437 1654.54 663.673 1654.21 662.248C1653.04 657.199 1651.12 651.648 1644.9 653.154C1640.59 654.203 1636.38 657.475 1634.63 661.704C1632.83 665.994 1633.71 670.772 1635 675.084C1636.36 679.616 1638.61 683.987 1638.77 688.767C1638.91 692.489 1638.46 697.257 1635.96 700.184C1632.82 703.91 1627.07 701.275 1624.37 698.206C1621.65 695.125 1620.54 690.445 1619.43 686.564C1618.47 683.248 1616.36 669.649 1610.37 672.751C1606.5 674.758 1604.21 681.346 1603.06 685.267C1601.53 690.405 1601.44 696.007 1603.21 701.117C1606.07 709.358 1614.26 715.21 1620.44 720.707C1626.94 726.487 1635.81 733.333 1638.09 742.325C1639.25 746.906 1637.68 752.548 1634 755.476C1629.57 759.007 1623.17 757.847 1619.05 754.386C1612.23 748.656 1615.36 737.988 1611.63 730.583C1608.02 723.399 1598.8 726.714 1594.3 731.253C1589.85 735.755 1589.63 742.39 1591.24 748.249C1595.49 763.737 1609.94 777.888 1624.16 783.819C1630.62 786.515 1637.97 787.699 1644.57 784.854C1646.65 784.077 1645.59 780.835 1643.6 781.685Z" fill="#DCD3D7"/>
<path d="M-162.466 929.494C-120.004 919.493 -78.807 901.741 -49.3736 867.411C-12.5726 824.494 2.51829 768.031 26.3255 717.495C33.0345 703.229 40.724 689.654 49.1603 676.396C54.8427 667.452 62.084 655.548 72.3801 651.886C71.5246 651.274 70.6691 650.662 69.8507 650.033C69.6237 655.184 66.1269 659.342 62.9463 663.05C59.8229 666.684 56.6586 670.176 53.8362 674.084C46.9369 683.674 41.1099 694.213 35.9617 704.916C28.6374 720.122 22.0039 736.226 17.5515 752.59C15.2835 760.931 13.3914 769.764 14.3882 778.428C14.5088 779.458 15.5466 780.076 16.4913 779.929C27.3091 778.402 37.9377 775.439 48.523 772.681C61.1793 769.379 73.7779 765.897 86.516 762.881C91.7583 761.641 97.0076 760.468 102.328 759.608C105.723 759.061 109.535 758.292 112.983 758.876C113.645 759.001 114.594 759.268 114.682 759.365C114.797 759.472 114.725 759.159 114.659 759.515C114.638 759.571 114.304 760.84 114.197 761.053C113.423 762.345 109.055 763.632 107.065 764.207C93.1719 768.211 78.7134 770.286 64.6013 773.191C54.9356 775.189 45.3109 777.329 35.7308 779.771C30.6877 781.055 25.6685 782.443 20.6833 783.907C19.2363 784.34 17.3298 784.597 16.0695 785.45C14.6307 786.456 13.3597 788.448 12.2729 789.843C1.69003 803.172 -5.66951 819.158 -13.3754 834.313C-21.9613 851.228 -31.6296 867.223 -44.4929 881.079C-59.5883 897.291 -77.506 910.585 -97.283 919.996C-116.642 929.186 -137.244 935.172 -157.228 942.6C-156.445 942.899 -155.634 943.208 -154.85 943.507C-157.399 938.98 -159.694 933.661 -159.076 928.279C-158.805 925.906 -162.408 925.58 -162.679 927.953C-163.326 933.928 -160.982 939.963 -158.141 945.046C-157.615 945.976 -156.76 946.334 -155.762 945.953C-137.201 939.062 -118.171 933.428 -100.061 925.318C-81.6924 917.083 -64.9577 905.877 -50.1841 891.924C-35.7607 878.345 -23.9829 862.298 -14.6597 844.616C-6.32083 828.813 1.02049 812.28 11.1036 797.523C13.2326 794.43 15.857 789.622 19.3469 788.127C24.2429 786.058 29.9145 785.077 35.0418 783.73C45.0098 781.15 55.0764 778.893 65.1638 776.834C79.809 773.814 94.9664 771.847 109.277 767.367C111.878 766.549 115.936 765.525 117.323 762.784C118.173 761.109 118.768 758.605 117.363 756.959C115.704 754.993 112.501 755.01 110.209 755.057C105.808 755.157 101.438 755.936 97.1403 756.773C72.0324 761.613 47.7065 770.084 22.6294 775.095C20.3791 775.538 18.1119 775.944 15.8377 776.283C16.5511 776.777 17.2274 777.289 17.9409 777.783C17.0402 769.79 18.8494 761.528 20.93 753.878C23.3018 745.164 26.4133 736.701 29.758 728.358C37.1522 709.972 45.5357 691.742 57.1381 675.755C62.6954 668.097 72.9891 660.689 73.443 650.387C73.5204 648.893 72.1884 648.067 70.9137 648.534C62.233 651.637 55.7906 660.386 50.6073 667.774C43.4899 677.885 37.0896 688.65 31.267 699.603C18.0126 724.61 7.99903 751.202 -2.87625 777.371C-14.0099 804.17 -26.3673 830.186 -43.2034 853.701C-56.4703 872.26 -73.4916 887.674 -92.882 899.169C-114.655 912.073 -138.702 920.111 -163.092 925.859C-165.336 926.369 -164.746 930.022 -162.466 929.494Z" fill="#D7D7D7"/>
<path d="M36.2518 773.463C35.5712 758.888 42.9427 745.001 52.2533 734.52C61.8668 723.711 74.9111 714.812 89.1087 712.352C96.6529 711.037 104.027 712.071 111.069 715.136C120.098 719.086 128.11 724.235 138.301 722.914C147.391 721.745 155.953 718.12 164.886 716.193C171.714 714.733 178.85 714.723 185.638 716.358C198.074 719.385 209.012 728.188 212.564 741.192C216.774 756.636 211.424 774.213 197.628 782.382C191.298 786.127 184.134 788.093 176.991 789.402C169.619 790.75 161.944 790.808 154.903 793.711C141.803 799.097 136.3 812.489 126.031 821.367C111.608 833.835 89.0652 833.177 72.3948 826.632C63.5596 823.169 54.8709 817.508 49.6557 809.203C44.4745 800.975 42.7825 790.998 38.2047 782.46C37.0789 780.38 33.7883 781.919 34.9411 784.009C39.1933 791.915 40.9809 800.945 45.2802 808.805C49.6135 816.742 56.3889 822.594 64.1222 826.812C79.4637 835.167 98.5434 837.33 115.099 831.738C122.583 829.226 128.688 824.57 133.898 818.557C138.691 813.02 142.655 806.627 148.314 801.928C155.371 796.08 163.497 795.114 172.142 793.902C179.852 792.81 187.625 791.202 194.786 787.964C209.729 781.217 217.84 767.073 217.468 750.362C217.142 736.081 209.611 723.624 197.416 716.944C183.555 709.343 168.849 710.911 154.298 715.204C149.212 716.693 144.095 718.266 138.858 719.063C132.714 719.991 127.266 718.644 121.65 716.059C113.229 712.214 105.324 707.962 95.8691 708.009C81.2133 708.072 67.1664 715.573 56.2844 725.296C45.261 735.156 36.1025 748.457 33.3479 763.436C32.6917 766.964 32.5282 770.488 32.6922 774.042C32.8198 776.503 36.3825 775.83 36.2518 773.463Z" fill="#D7D7D7"/>
<path d="M55.5666 770.795C60.1328 752.665 76.2999 739.877 89.4454 728.224C91.2036 726.672 88.9282 723.773 87.16 725.353C73.5732 737.378 56.9215 750.742 52.1881 769.507C51.6098 771.794 54.9783 773.11 55.5666 770.795Z" fill="#D7D7D7"/>
<path d="M60.3604 778.051C75.0286 789.895 94.9027 802.137 114.074 795.003C116.273 794.19 114.753 790.817 112.581 791.64C94.7953 798.255 75.947 785.897 62.4592 775.042C60.6294 773.55 58.5306 776.559 60.3604 778.051Z" fill="#D7D7D7"/>
<path d="M115.881 761.155C141.155 753.553 168.808 758.54 193.038 746.667C195.135 745.626 193.641 742.263 191.544 743.305C167.638 755.047 140.214 750.021 115.255 757.52C113.062 758.144 113.642 761.825 115.881 761.155Z" fill="#D7D7D7"/>
<path d="M117.642 763.35C128.204 764.837 137.567 770.501 147.453 774.206C157.312 777.901 167.312 778.983 177.225 774.763C179.373 773.836 177.88 770.473 175.732 771.4C155.285 780.112 137.591 762.416 117.957 759.661C115.65 759.322 115.352 763.049 117.642 763.35Z" fill="#D7D7D7"/>
<path d="M118.366 756.992C121.868 741.472 138.906 736.762 152.002 733.691C154.255 733.154 153.665 729.501 151.385 730.028C137.075 733.397 118.79 738.839 114.987 755.704C114.463 758.012 117.831 759.328 118.366 756.992Z" fill="#D7D7D7"/>
<path d="M109.444 730.991C102.347 738.061 98.0954 747.043 93.3948 755.821C92.9177 756.719 92.9372 757.773 93.8096 758.423C94.513 758.945 95.8563 758.886 96.3334 757.989C100.859 749.525 104.915 740.659 111.74 733.834C113.4 732.213 111.115 729.342 109.444 730.991Z" fill="#D7D7D7"/>
<path d="M93.4773 772.994C101.779 780.666 112.618 784.798 122.795 789.058C124.927 789.966 126.184 786.478 124.052 785.57C114.145 781.412 103.685 777.425 95.5862 769.957C93.8507 768.375 91.7688 771.422 93.4773 772.994Z" fill="#D7D7D7"/>
<path d="M61.9467 778.084C60.3902 784.791 61.2186 792.217 62.9968 798.799C64.7818 805.447 67.919 812.864 73.9935 816.481C75.998 817.658 78.0968 814.649 76.1024 813.444C70.7344 810.255 67.9807 803.651 66.4539 797.736C64.958 791.992 63.9693 785.267 65.3353 779.344C65.8495 777.064 62.481 775.748 61.9467 778.084Z" fill="#D7D7D7"/>
<path d="M87.4157 795.188C87.4615 804.188 89.7525 814.807 97.5725 819.978C99.5098 821.256 101.636 818.257 99.6814 816.941C92.9501 812.502 91.0437 803.205 91.0011 795.475C90.9986 794.459 90.3989 793.564 89.3624 793.454C88.451 793.424 87.4031 794.199 87.4157 795.188Z" fill="#D7D7D7"/>
<path d="M17.1639 732.254C11.6935 727.217 8.93349 719.435 7.10002 712.325C5.23262 705.137 4.11699 697.57 4.00079 690.13C3.85065 682.613 4.4328 675.027 5.57564 667.59C6.6751 660.359 8.3711 652.753 12.3557 646.559C15.762 641.286 19.8654 638.089 26.0411 637.587C31.8052 637.117 37.6836 637.866 43.3301 636.273C54.053 633.219 59.2571 623.299 63.5063 613.555C68.7054 601.602 73.9077 589.555 86.8614 585.002C99.3801 580.633 113.612 582.598 124.829 589.604C135.688 596.409 144.565 608.713 144.824 622.238C145.037 633.08 137.142 639.974 129.897 646.513C121.777 653.861 114.587 662.039 114.985 673.904C115.245 680.859 117.772 687.155 120.167 693.559C121.105 696.075 122.209 699.068 121.179 701.754C119.643 705.676 114.771 707.85 111.376 709.508C109.289 710.522 110.773 713.912 112.87 712.87C118.008 710.385 124.706 706.812 125.192 700.173C125.58 694.575 122.05 689.103 120.471 683.93C118.487 677.492 117.633 670.564 120.182 664.172C122.185 659.127 125.986 655.148 129.839 651.538C137.261 644.59 146.169 637.956 148.056 627.089C150.27 614.379 143.215 600.77 134.426 592.405C124.681 583.104 111.185 578.244 97.9281 579.032C84.0775 579.846 72.8743 586.622 66.1138 599.154C60.5295 609.532 57.6234 624.676 46.7697 630.823C36.1587 636.809 22.613 629.868 13.364 639.325C7.77153 645.033 4.96862 652.726 3.24938 660.482C1.2064 669.734 0.355821 679.345 0.412906 688.826C0.46749 697.29 1.63276 705.828 3.86033 713.978C5.98922 721.805 9.10057 729.72 15.0852 735.207C16.7905 736.873 18.8723 733.826 17.1639 732.254Z" fill="#D7D7D7"/>
<path d="M108.071 612.133C108.862 644.145 85.4557 676.424 53.3682 678.794C51.0632 678.962 51.6797 682.626 53.9847 682.457C87.5268 679.975 112.516 645.95 111.657 612.42C111.607 610.084 108.015 609.731 108.071 612.133Z" fill="#D7D7D7"/>
<path d="M89.5371 610.591C85.3518 624.422 78.6706 637.587 70.1828 649.112C68.7867 651.024 71.6982 653.181 73.1214 651.28C81.8178 639.517 88.6839 626.01 92.9527 611.861C93.5851 609.594 90.2065 608.306 89.5371 610.591Z" fill="#D7D7D7"/>
<path d="M40.7786 644.633C38.3918 649.976 37.9782 656.072 38.3502 661.864C38.7015 667.457 39.9209 673.286 42.5759 678.203C43.7017 680.282 46.9653 678.733 45.8395 676.653C43.3913 672.102 42.3083 666.832 41.9243 661.671C41.5265 656.377 41.9955 650.81 44.1572 645.921C45.134 643.722 41.7454 642.462 40.7786 644.633Z" fill="#D7D7D7"/>
<path d="M17.1329 657.87C15.9366 666.905 15.8988 676.222 17.1665 685.244C18.3657 693.859 20.8422 703.024 26.7382 709.525C28.3221 711.272 31.1112 708.907 29.5272 707.16C23.8952 700.951 21.7337 692.191 20.6401 683.966C19.5018 675.437 19.6119 666.687 20.7183 658.157C21.0433 655.805 17.441 655.48 17.1329 657.87Z" fill="#D7D7D7"/>
<path d="M98.5875 689.206C90.9773 696.59 81.0583 701.252 70.9514 703.621C61.4888 705.823 51.0602 706.355 41.9339 702.59C39.7918 701.71 38.5346 705.199 40.6767 706.079C50.3875 710.098 61.5253 709.646 71.595 707.295C82.2991 704.804 92.8284 699.898 100.9 692.088C102.56 690.467 100.285 687.568 98.5875 689.206Z" fill="#D7D7D7"/>
<path d="M77.0538 687.029C70.9647 691.215 67.5446 697.72 64.2966 704.259C63.8466 705.166 64.538 706.319 65.3488 706.628C66.3489 707.009 67.2352 706.426 67.6482 705.536C70.6308 699.563 73.7826 693.718 79.3122 689.89C80.1243 689.342 80.1514 687.988 79.5825 687.263C78.9257 686.441 77.8759 686.454 77.0538 687.029Z" fill="#D7D7D7"/>
<path d="M89.6613 636.349C89.658 644.632 88.8684 652.965 89.7326 661.23C89.9815 663.61 93.5342 662.965 93.2853 660.585C92.4658 652.622 93.2528 644.638 93.2467 636.636C93.2442 635.62 92.6445 634.724 91.608 634.615C90.7066 634.557 89.6588 635.332 89.6613 636.349Z" fill="#D7D7D7"/>
<path d="M70.4105 616.918C72.1585 624.948 73.9064 632.979 75.6544 641.009C76.1698 643.332 79.7124 642.715 79.2071 640.364C77.4591 632.333 75.7112 624.303 73.9632 616.272C73.4748 613.959 69.9051 614.567 70.4105 616.918Z" fill="#D7D7D7"/>
</g>
</svg>
